<mxfile host="app.diagrams.net" modified="2021-07-22T08:11:01.598Z" agent="5.0 (Windows NT 10.0; Win64; x64) AppleWebKit/537.36 (KHTML, like Gecko) Chrome/87.0.4280.66 Safari/537.36" etag="T878yPBniOJB2P0i0Dty" version="14.9.1" type="github">
  <diagram id="KrWQ09_p7sNg0G6jkC3d" name="Page-1">
    <mxGraphModel dx="1038" dy="580" grid="0" gridSize="10" guides="1" tooltips="1" connect="1" arrows="1" fold="1" page="1" pageScale="1" pageWidth="827" pageHeight="1169" math="0" shadow="0">
      <root>
        <mxCell id="0" />
        <mxCell id="1" parent="0" />
        <mxCell id="4LlMUXb4ZLbCFZA0CFuY-12" value="" style="edgeStyle=orthogonalEdgeStyle;rounded=0;orthogonalLoop=1;jettySize=auto;html=1;strokeColor=#3399FF;strokeWidth=3;" edge="1" parent="1" source="4LlMUXb4ZLbCFZA0CFuY-2">
          <mxGeometry relative="1" as="geometry">
            <mxPoint x="623" y="310" as="targetPoint" />
          </mxGeometry>
        </mxCell>
        <mxCell id="4LlMUXb4ZLbCFZA0CFuY-2" value="" style="whiteSpace=wrap;html=1;aspect=fixed;" vertex="1" parent="1">
          <mxGeometry x="253" y="149" width="321" height="321" as="geometry" />
        </mxCell>
        <mxCell id="4LlMUXb4ZLbCFZA0CFuY-3" value="&lt;font style=&quot;font-size: 15px&quot;&gt;JAVA层(该层主要是定义接口)&lt;/font&gt;" style="rounded=1;whiteSpace=wrap;html=1;strokeColor=#d6b656;fillColor=#FFFFFF;strokeWidth=3;" vertex="1" parent="1">
          <mxGeometry x="278" y="169" width="271" height="53" as="geometry" />
        </mxCell>
        <mxCell id="4LlMUXb4ZLbCFZA0CFuY-4" value="" style="endArrow=classic;html=1;exitX=0.5;exitY=1;exitDx=0;exitDy=0;" edge="1" parent="1" source="4LlMUXb4ZLbCFZA0CFuY-3">
          <mxGeometry width="50" height="50" relative="1" as="geometry">
            <mxPoint x="387" y="313" as="sourcePoint" />
            <mxPoint x="414" y="281" as="targetPoint" />
          </mxGeometry>
        </mxCell>
        <mxCell id="4LlMUXb4ZLbCFZA0CFuY-5" value="&lt;font style=&quot;font-size: 15px&quot;&gt;KNI层(JAVA层接口的实现)&lt;/font&gt;" style="rounded=1;whiteSpace=wrap;html=1;strokeColor=#99FF99;strokeWidth=3;" vertex="1" parent="1">
          <mxGeometry x="278" y="283" width="271" height="53" as="geometry" />
        </mxCell>
        <mxCell id="4LlMUXb4ZLbCFZA0CFuY-6" value="&lt;font style=&quot;font-size: 15px&quot;&gt;Javacall层(与操作系统交互)&lt;/font&gt;" style="rounded=1;whiteSpace=wrap;html=1;strokeColor=#F8CECC;strokeWidth=3;" vertex="1" parent="1">
          <mxGeometry x="278" y="397" width="271" height="53" as="geometry" />
        </mxCell>
        <mxCell id="4LlMUXb4ZLbCFZA0CFuY-7" value="" style="endArrow=classic;html=1;exitX=0.5;exitY=1;exitDx=0;exitDy=0;" edge="1" parent="1">
          <mxGeometry width="50" height="50" relative="1" as="geometry">
            <mxPoint x="414" y="336" as="sourcePoint" />
            <mxPoint x="414.5" y="395" as="targetPoint" />
          </mxGeometry>
        </mxCell>
        <mxCell id="4LlMUXb4ZLbCFZA0CFuY-8" value="" style="endArrow=classic;html=1;" edge="1" parent="1">
          <mxGeometry width="50" height="50" relative="1" as="geometry">
            <mxPoint x="621" y="173" as="sourcePoint" />
            <mxPoint x="621" y="439" as="targetPoint" />
          </mxGeometry>
        </mxCell>
        <mxCell id="4LlMUXb4ZLbCFZA0CFuY-9" value="&lt;font style=&quot;font-size: 17px&quot;&gt;Apps&lt;/font&gt;" style="text;html=1;align=center;verticalAlign=middle;resizable=0;points=[];autosize=1;strokeColor=none;" vertex="1" parent="1">
          <mxGeometry x="599" y="149" width="48" height="18" as="geometry" />
        </mxCell>
        <mxCell id="4LlMUXb4ZLbCFZA0CFuY-10" value="&lt;font style=&quot;font-size: 17px&quot;&gt;OS&lt;/font&gt;" style="text;html=1;align=center;verticalAlign=middle;resizable=0;points=[];autosize=1;strokeColor=none;" vertex="1" parent="1">
          <mxGeometry x="605.5" y="444" width="35" height="18" as="geometry" />
        </mxCell>
      </root>
    </mxGraphModel>
  </diagram>
</mxfile>
